<?xml version="1.0" encoding="utf-8"?>
<!-- Generator: Adobe Illustrator 26.0.3, SVG Export Plug-In . SVG Version: 6.00 Build 0)  -->
<svg version="1.1" id="Layer_3_xA0_Image_00000061470115319760788650000003110329579166337670_"
	 xmlns="http://www.w3.org/2000/svg" xmlns:xlink="http://www.w3.org/1999/xlink" x="0px" y="0px" viewBox="0 0 300 300"
	 style="enable-background:new 0 0 300 300;" xml:space="preserve">
<path d="M277.6,300C235.3,257.7,193,215.4,150,172.4C107.3,215.1,64.8,257.6,22.4,300c-7.5-7.5-14.9-14.9-22.4-22.4
	C42.3,235.3,84.6,193,127.6,150C84.9,107.3,42.4,64.8,0,22.4C7.5,14.9,14.9,7.5,22.4,0C64.7,42.3,107,84.6,150,127.6
	C192.7,84.9,235.2,42.4,277.6,0c7.5,7.5,14.9,14.9,22.4,22.4C257.7,64.7,215.4,107,172.4,150c42.7,42.7,85.2,85.2,127.6,127.6
	C292.5,285.1,285.1,292.5,277.6,300z"/>
</svg>
